<?xml version="1.0" encoding="utf-8" ?><svg xmlns="http://www.w3.org/2000/svg" xmlns:xlink="http://www.w3.org/1999/xlink" width="2048" height="2048" viewBox="0 0 2048 2048"><path fill="#F6F6F7" d="M1061.14 624.074C1067.48 624.018 1080.51 625.753 1086.29 628.36C1107.55 633.927 1124.41 638.565 1144.83 647.045C1211.3 674.715 1266.97 723.254 1303.44 785.338C1345.23 857.733 1356.61 943.747 1335.08 1024.52C1311.5 1109.11 1255.37 1180.91 1178.98 1224.23C1129.37 1252.82 1073.14 1267.92 1015.88 1268.04L1015.76 1203.7C1015.43 1173.68 1010.2 1134.87 1032.79 1111.55C1048.94 1094.86 1073 1090.66 1093.37 1081.35C1144.99 1056.86 1177.05 1000.61 1177.09 944.287C1177.1 903.202 1160.84 863.784 1131.87 834.652C1107.21 809.982 1088.55 804.908 1056.25 794.254C1042.26 793.553 1029.48 793.676 1015.46 793.84C1022.87 792.129 1038.33 792.874 1046.51 793.074C1033.02 785.518 1023.2 778.69 1013.41 766.434C1010.49 762.781 1009.42 760.975 1005.16 759.618C1007.68 757.873 1006.97 759.057 1007.83 756.333L1006.45 754.92C1001.44 753.036 1000.3 753.518 994.755 754.05C998.136 753.25 999.889 752.789 1003.14 751.601C1002.48 745.297 996.703 735.681 996.012 728.928C995.811 726.961 995.061 723.66 994.669 721.566C992.884 720.356 988.408 721.085 985.721 721.212C988.888 720.635 994.241 720.008 994.915 716.337C989.749 712.576 974.948 715.627 968.797 716.219C977.383 713.23 985.14 712.828 994.113 712.14C993.866 698.755 997.436 685.937 1000.94 673.136C998.256 671.312 995.859 671.817 992.506 671.884L997.431 670.677C1001.71 669.63 1001.61 669.518 1005.02 666.796L1005.16 665.223C1002.25 663.081 999.337 663.738 995.542 663.85L1007.42 661.789C1019.52 646.96 1028.27 637.282 1046.3 630.164C1050.6 628.466 1057.43 626.127 1061.14 624.074Z"/><path fill="#2F0511" d="M1061.14 624.074C1067.48 624.018 1080.51 625.753 1086.29 628.36C1010.32 618.527 971.298 708.284 1015.38 764.336C1026.06 777.811 1040.18 788.148 1056.25 794.254C1042.26 793.553 1029.48 793.676 1015.46 793.84C1022.87 792.129 1038.33 792.874 1046.51 793.074C1033.02 785.518 1023.2 778.69 1013.41 766.434C1010.49 762.781 1009.42 760.975 1005.16 759.618C1007.68 757.873 1006.97 759.057 1007.83 756.333L1006.45 754.92C1001.44 753.036 1000.3 753.518 994.755 754.05C998.136 753.25 999.889 752.789 1003.14 751.601C1002.48 745.297 996.703 735.681 996.012 728.928C995.811 726.961 995.061 723.66 994.669 721.566C992.884 720.356 988.408 721.085 985.721 721.212C988.888 720.635 994.241 720.008 994.915 716.337C989.749 712.576 974.948 715.627 968.797 716.219C977.383 713.23 985.14 712.828 994.113 712.14C993.866 698.755 997.436 685.937 1000.94 673.136C998.256 671.312 995.859 671.817 992.506 671.884L997.431 670.677C1001.71 669.63 1001.61 669.518 1005.02 666.796L1005.16 665.223C1002.25 663.081 999.337 663.738 995.542 663.85L1007.42 661.789C1019.52 646.96 1028.27 637.282 1046.3 630.164C1050.6 628.466 1057.43 626.127 1061.14 624.074Z"/><path fill="#FD3B50" d="M1006.48 365.573C1099.97 359.585 1197.21 386.744 1277.85 433.798C1296.16 444.487 1347.52 476.689 1354.04 497.319C1356.62 505.477 1351.45 513.738 1347.25 520.523C1353.64 526.266 1360.32 532.166 1366.52 538.097C1446.76 615.558 1492.76 721.851 1494.3 833.373C1498.13 837.048 1507.85 844.273 1512.38 847.887C1528.55 860.775 1540.75 875.556 1550.03 894.111C1566.22 927.018 1568.69 965.006 1556.89 999.73C1542.93 1041.5 1519.88 1060.44 1482.73 1079.03L1483.98 1073.5C1487.48 1058.14 1486.22 1043.27 1486.17 1027.51L1486.11 973.226C1486.07 926.723 1486.36 880.159 1485.67 833.67C1485.21 803.027 1473.44 780.277 1446.52 765.654C1443.37 754.622 1440.83 743.362 1437.27 732.476C1411.52 653.645 1380.14 605.617 1321.32 548.844C1314.15 554.148 1303.3 560.768 1295.05 555.811C1277.34 545.169 1264.47 530.802 1245.7 519.197C1183.97 481.038 1117.57 464.654 1045.99 458.947C1031.64 457.243 1009.08 458.15 994.756 459.196C925.797 463.593 859.022 485.113 800.473 521.81C786.372 530.628 774.691 541.662 761.02 550.86C745.82 561.087 737.003 558.769 724.111 547.742C665.392 606.251 618.207 682.188 602.846 764.425C557.982 793.85 563.536 822.939 563.59 871.872L563.689 950.471L563.687 1024.09C563.655 1041.01 563.005 1062.31 565.475 1078.72C485.414 1044.87 459.897 948.326 506.861 877.084C518.992 858.681 534.904 846.836 551.617 833.068C555.012 809.863 553.522 789.392 558.738 763.363C579.223 661.137 627.953 589.345 700.984 518.559C696.21 506.917 691.637 493.996 702.655 483.996C785.015 409.247 896.449 370.612 1006.48 365.573Z"/><path fill="#FD3B50" d="M1010.9 832.443C1072.47 825.12 1128.27 869.228 1135.37 930.828C1142.46 992.427 1098.14 1048.06 1036.52 1054.92C975.216 1061.75 919.938 1017.72 912.883 956.443C905.828 895.169 949.653 839.726 1010.9 832.443Z"/><path fill="#2F0511" d="M1014.03 910.54C1032.15 906.543 1050.08 917.991 1054.08 936.111C1058.08 954.23 1046.64 972.163 1028.52 976.167C1010.39 980.172 992.456 968.724 988.454 950.599C984.453 932.474 995.905 914.537 1014.03 910.54Z"/><path fill="#F6F6F7" d="M1019.06 912.502C1036.11 911.303 1050.9 924.131 1052.12 941.17C1053.35 958.209 1040.54 973.021 1023.51 974.272C1006.43 975.525 991.581 962.686 990.353 945.611C989.126 928.535 1001.99 913.704 1019.06 912.502Z"/><path fill="#F6F6F7" d="M1249.5 1373.3C1340.96 1363.78 1398.54 1465.63 1345.36 1538.81C1336.6 1550.86 1336.24 1557.56 1348.02 1566.34C1354.29 1571.02 1365.39 1580.35 1365.95 1588.67C1366.75 1600.84 1357.37 1613.61 1344.42 1613.86C1331.92 1614.26 1326.64 1609.98 1318 1602.49C1310.17 1594.22 1304.3 1588.16 1295.73 1580.54C1260.22 1581.34 1240.48 1588.19 1207.74 1565.43C1183.55 1548.45 1167.08 1522.57 1161.93 1493.47C1157.12 1466.07 1163.56 1437.88 1179.79 1415.28C1196.91 1391.34 1220.73 1377.95 1249.5 1373.3ZM1266.88 1537.42C1259.38 1530.09 1256.77 1528.28 1252.88 1518.42C1254.4 1502.87 1260.27 1493.74 1276.86 1499.31C1292.29 1504.49 1303.32 1523.4 1311.2 1497.14C1321.39 1456.87 1302.07 1416.15 1255.95 1417.25C1249.29 1418.8 1244.47 1420.35 1238.33 1423.76C1200.05 1445.02 1200.33 1506.48 1237.22 1528.89C1247.18 1534.95 1255.57 1536.33 1266.88 1537.42Z"/><path fill="#FD3B50" d="M975.949 1261.38L974.401 1262.72C962.331 1263.17 936.155 1255.34 923.62 1251.35C857.486 1230.91 799.753 1189.59 759.072 1133.59C709.712 1065.88 689.29 981.335 702.304 898.564C716.167 811.594 763.933 737.126 835.044 685.621C887.508 647.509 949.998 625.623 1014.78 622.671C1029.77 621.929 1046.4 621.73 1061.14 624.074C1057.43 626.127 1050.6 628.466 1046.3 630.164C1028.27 637.282 1019.52 646.96 1007.42 661.789L995.542 663.85C926.941 669.017 850.175 714.127 805.889 765.732C757.255 822.66 733.478 896.712 739.881 971.312C745.955 1044.84 781.295 1112.85 837.971 1160.09C879.461 1195.04 922.606 1214.67 975.529 1224.44C975.455 1234.15 974.894 1252.48 975.949 1261.38Z"/><path fill="#FD3B50" d="M1373.69 768.441C1374.89 768.384 1376.08 768.338 1377.28 768.3C1424.95 766.813 1465.62 782.095 1465.94 836.907C1466.23 887.838 1466.24 938.91 1466.17 989.852C1464.5 1018.49 1469.7 1050.27 1464.78 1078.46C1457.64 1119.37 1424.56 1131.67 1389.17 1132C1373.87 1132.03 1354.12 1132.37 1339.61 1128.83C1396.84 1035.06 1405.61 919.529 1363.21 818.189C1360.05 810.484 1341.98 775.566 1342.82 771.664C1347.85 768.094 1366.34 768.745 1373.69 768.441Z"/><path fill="#F6F6F7" d="M268.929 1373.43C310.755 1372.13 303.26 1380.38 317.083 1414.1C323.8 1430.48 334.82 1475.61 343.237 1488.16C347.997 1485.53 356.174 1451.26 359.75 1443.87C366.833 1429.25 375.074 1376.7 392.443 1374.27C437.034 1368.04 437.195 1383.32 439.69 1421.26C440.216 1429.26 441.761 1442.8 442.688 1451.63L449.682 1519.58C450.919 1531.78 451.804 1544.12 453.111 1557.76C455.146 1579.01 434.01 1584.77 418.314 1578.32C409.069 1574.52 408.261 1545.64 407.149 1534.03C405.423 1515.65 403.465 1497.3 401.276 1478.97L399.194 1460.38C387.862 1487.02 379.531 1520.96 369.314 1548.56C365.093 1558.84 362.941 1573.16 351.515 1577.9C331.538 1586.03 325.089 1566.83 319.643 1552.23C308.551 1522.51 300.893 1489.94 289.209 1460.64C285.021 1483.91 284.249 1508.32 282.454 1531.89C281.536 1543.94 281.709 1558.15 277.705 1569.56C276.016 1574.37 273.145 1578.49 268.421 1580.68C261.949 1583.68 254.48 1583.1 247.938 1580.61C243.774 1579.03 237.702 1575.48 236.116 1571.01C234.46 1566.33 235.097 1558.46 235.38 1553.47C236.298 1537.28 250.171 1388.55 253.261 1382.79C256.453 1376.84 262.836 1374.93 268.929 1373.43Z"/><path fill="#FD3B50" d="M646.164 769.385C657.742 769.026 683.673 767.392 693.064 772.525C693.465 773.177 693.867 773.83 694.269 774.482C691.967 782.384 688.147 789.914 684.85 797.465C676.088 817.527 668.167 838.638 662.968 859.895C647.5 923.14 648.658 993.966 668.319 1056.22C671.026 1064.91 674.214 1073.44 677.87 1081.78C682.426 1092.24 698.05 1120.85 697.687 1129.77C694.13 1133.16 681.967 1132.09 676.75 1132.01C650.669 1132.43 626.526 1134.63 604.946 1117.15C576.486 1094.1 581.785 1057.13 581.919 1024.31L581.921 943.932L581.79 870.893C581.748 854.881 581.121 838.868 582.942 822.943C586.667 790.376 615.27 771.658 646.164 769.385Z"/><path fill="#FD3B50" d="M992.506 671.884C995.859 671.817 998.256 671.312 1000.94 673.136C997.436 685.937 993.866 698.755 994.113 712.14C985.14 712.828 977.383 713.23 968.797 716.219C940.904 724.093 911.942 736.447 887.762 752.612C836.299 787.688 800.56 841.466 788.153 902.497C776.216 963.608 789.069 1026.96 823.879 1078.58C858.722 1129.57 914.096 1169.19 975.252 1180.67L975.546 1216.58C940.889 1212.68 893.555 1190.12 864.187 1170.28C805.724 1130.65 765.43 1069.39 752.193 1000.01C737.858 928.474 752.962 854.179 794.092 793.92C842.714 722.952 910.376 687.524 992.506 671.884Z"/><path fill="#FD3B50" d="M985.721 721.212C988.408 721.085 992.884 720.356 994.669 721.566C995.061 723.66 995.811 726.961 996.012 728.928C996.703 735.681 1002.48 745.297 1003.14 751.601C999.889 752.789 998.136 753.25 994.755 754.05C977.681 756.394 951.099 766.016 935.942 774.001C889.418 798.477 854.502 840.409 838.854 890.596C824.5 938.894 829.766 990.903 853.509 1035.34C880.754 1086.25 922.48 1116.34 976.747 1132.86C975.294 1144.42 975.489 1160.69 975.361 1172.57C944.498 1164.41 926.926 1158.96 899.021 1140.91C846.854 1107.46 810.026 1054.74 796.564 994.243C784.169 935.571 795.67 874.378 828.521 824.21C866.438 766.551 919.173 734.927 985.721 721.212Z"/><path fill="#F6F6F7" d="M518.016 1379.05C527.788 1399.38 521.865 1468.11 522.124 1494.37C522.237 1505.76 521.793 1521.24 530.871 1529.59C538.134 1536.27 548.7 1537.53 558.175 1536.96C566.477 1536.46 574.34 1533.85 579.354 1526.85C599.352 1498.94 572.895 1400.44 594.07 1378.81C598.371 1374.41 604.757 1372.37 610.816 1372.4C619.075 1372.44 625.279 1376.24 631.011 1381.85C636.825 1399.82 634.83 1416.51 634.046 1435.28C634.681 1464.3 637.197 1505.19 631.574 1533.13C617.978 1598.07 492.188 1598.42 477.763 1534.23C469.119 1495.77 476.295 1448.43 473.732 1408.74C472.564 1390.64 475.717 1378.31 494.649 1373.23C504.861 1372.42 509.529 1374.37 518.016 1379.05Z"/><path fill="#F6F6F7" d="M1405.16 1373.08C1416.82 1372.32 1421.2 1372.2 1430.86 1379.52C1439.83 1396.74 1435.36 1442.68 1435.07 1463.67C1434.81 1482.87 1430.94 1515.76 1445.86 1530.27C1451.86 1536.11 1459.56 1538.06 1467.75 1537.79C1476.3 1537.5 1488.22 1535.46 1493.96 1528.54C1514.9 1503.29 1487.29 1399.22 1508.03 1378.52C1511.92 1374.64 1517.29 1372.92 1522.71 1372.94C1530.14 1372.96 1537.57 1376 1542.54 1381.59C1552.94 1393.29 1549.15 1418.02 1548.63 1432.79C1548.61 1446.08 1549.08 1459.43 1549.08 1472.75C1549.02 1512.12 1555.65 1552.76 1513.58 1573.06C1468.84 1594.65 1393.07 1580.17 1388.37 1521.8C1387.48 1496.71 1387.56 1472.5 1388.16 1447.26C1388.63 1427.69 1384.75 1402.33 1391.73 1384.23C1393.94 1378.5 1399.87 1375.42 1405.16 1373.08Z"/><path fill="#F6F6F7" d="M1672.18 1374.3C1711.44 1373.59 1751.64 1376.03 1791.06 1374.88C1801.04 1374.58 1810.7 1378.1 1813.96 1388.43C1821.2 1411.4 1803.83 1427.75 1790.76 1443.93C1767.71 1473.55 1740.54 1501.58 1721.75 1534.04C1721.58 1534.41 1721.42 1534.79 1721.26 1535.16C1743.12 1541.79 1773.9 1535.37 1797.08 1537.37C1822.79 1539.6 1822.76 1566.14 1805.83 1579.75C1789.81 1584.39 1754.7 1580.97 1736.81 1581.97C1718.29 1582.04 1699.64 1582.21 1681.2 1581.29C1652.75 1579.88 1657.56 1560.4 1658.07 1539.36C1670.77 1518.39 1742.33 1437.2 1744.93 1423.22C1737.07 1412.35 1681.22 1421.98 1667.63 1416.98C1645.41 1408.81 1653.77 1382.35 1672.18 1374.3Z"/><path fill="#F6F6F7" d="M735.538 1372.32C756.343 1371.35 806.223 1377.63 804.149 1407.71C803.454 1412.65 800.911 1420.14 796.949 1423.56C781.902 1436.58 762.229 1418.16 745.664 1416.67C736.431 1414.54 721.552 1419.72 720.753 1430.48C719.937 1441.48 736.74 1448.36 744.713 1451.84C763.608 1460.08 783.602 1467.7 798.278 1482.63C819.585 1504.31 815.107 1543.45 793.142 1562.97C774.003 1580.46 750.875 1582.51 725.757 1581.79C703.385 1578.26 668.243 1568.47 662.244 1541.95C661.048 1536.66 663.924 1528.48 667.421 1524.28C685.249 1502.87 704.058 1529.65 722.236 1534.72C728.712 1538.39 736.598 1535.71 742.165 1536.24C749.802 1536.96 767.71 1527 763.035 1518.66C751.518 1498.12 715.803 1492.98 697.583 1478.28C686.047 1470.1 674.818 1458.79 673.146 1443.59C668.074 1397.48 695.347 1378.11 735.538 1372.32Z"/><path fill="#F6F6F7" d="M1004.73 1372.26C1024.44 1370.73 1056.36 1375.78 1072 1389.26C1075.44 1391.58 1080.94 1400.82 1079.89 1405.1C1064.26 1468.46 1027.4 1386 975.874 1433.71C964.5 1444.35 958.008 1459.2 957.928 1474.78C957.682 1491.47 964.189 1507.56 975.971 1519.39C991.562 1534.93 1014.42 1540.51 1035.41 1532.46C1043.07 1529.52 1050.73 1522.58 1059.31 1522.92C1066.78 1523.2 1071.13 1528.42 1076.01 1533.33C1091.22 1563.6 1056.02 1576.11 1033.07 1580.57C975.848 1591.68 919.377 1552.91 909.491 1495.45C904.667 1467.82 911.165 1439.41 927.522 1416.62C947.021 1389.55 972.712 1377.63 1004.73 1372.26Z"/><path fill="#FD3B50" d="M1005.16 759.618C1009.42 760.975 1010.49 762.781 1013.41 766.434C1023.2 778.69 1033.02 785.518 1046.51 793.074C1038.33 792.874 1022.87 792.129 1015.46 793.84C974.043 796.937 935.576 816.458 908.62 848.06C851.157 915.249 864.632 1016.94 937.351 1066.98C955.454 1079.44 975 1086.07 995.975 1091.9C991.127 1099.61 981.485 1114.85 980.161 1124.15C965.292 1122.75 941.043 1111.19 928.371 1103.54C885.706 1077.27 855.295 1035.05 843.888 986.262C832.889 939.302 841.131 889.894 866.777 849.047C889.332 812.722 923.518 785.099 963.769 770.675C977.551 765.766 990.95 762.898 1005.16 759.618Z"/><path fill="#040715" fill-opacity="0.011764706" d="M995.542 663.85C999.337 663.738 1002.25 663.081 1005.16 665.223L1005.02 666.796C1001.61 669.518 1001.71 669.63 997.431 670.677L992.506 671.884C910.376 687.524 842.714 722.952 794.092 793.92C752.962 854.179 737.858 928.474 752.193 1000.01C765.43 1069.39 805.724 1130.65 864.187 1170.28C893.555 1190.12 940.889 1212.68 975.546 1216.58L975.252 1180.67C914.096 1169.19 858.722 1129.57 823.879 1078.58C789.069 1026.96 776.216 963.608 788.153 902.497C800.56 841.466 836.299 787.688 887.762 752.612C911.942 736.447 940.904 724.093 968.797 716.219C974.948 715.627 989.749 712.576 994.915 716.337C994.241 720.008 988.888 720.635 985.721 721.212C919.173 734.927 866.438 766.551 828.521 824.21C795.67 874.378 784.169 935.571 796.564 994.243C810.026 1054.74 846.854 1107.46 899.021 1140.91C926.926 1158.96 944.498 1164.41 975.361 1172.57C975.489 1160.69 975.294 1144.42 976.747 1132.86C922.48 1116.34 880.754 1086.25 853.509 1035.34C829.766 990.903 824.5 938.894 838.854 890.596C854.502 840.409 889.418 798.477 935.942 774.001C951.099 766.016 977.681 756.394 994.755 754.05C1000.3 753.518 1001.44 753.036 1006.45 754.92L1007.83 756.333C1006.97 759.057 1007.68 757.873 1005.16 759.618C990.95 762.898 977.551 765.766 963.769 770.675C923.518 785.099 889.332 812.722 866.777 849.047C841.131 889.894 832.889 939.302 843.888 986.262C855.295 1035.05 885.706 1077.27 928.371 1103.54C941.043 1111.19 965.292 1122.75 980.161 1124.15C979.967 1121.54 978.941 1140.15 979.18 1137.73C977.157 1158.19 982.677 1248.91 975.949 1261.38C974.894 1252.48 975.455 1234.15 975.529 1224.44C922.606 1214.67 879.461 1195.04 837.971 1160.09C781.295 1112.85 745.955 1044.84 739.881 971.312C733.478 896.712 757.255 822.66 805.889 765.732C850.175 714.127 926.941 669.017 995.542 663.85Z"/><path fill="#F6F6F7" d="M856.344 1372.19C861.213 1372.38 866.582 1372.68 871.214 1374.26C875.697 1375.78 880.981 1379.41 882.972 1383.88C887.336 1393.69 887.033 1560 883.34 1569.45C880.594 1576.48 873.87 1580.07 867.466 1583.13C845.352 1584.26 837.064 1574.64 837.118 1553.37C837.25 1501.39 836.838 1449.38 837.035 1397.41C837.092 1382.36 843.262 1377.1 856.344 1372.19Z"/><path fill="#F6F6F7" d="M1599.83 1373.28C1605.56 1372.72 1611.59 1372.68 1616.98 1374.96C1620.76 1376.57 1624.94 1379.95 1626.38 1383.92C1631.49 1398.05 1629.9 1530.94 1628.49 1553.46C1628.16 1558.66 1627.78 1567.11 1625.35 1571.67C1622.06 1577.81 1615.81 1580.75 1609.55 1583.03C1595.27 1583.58 1582.62 1577.05 1582.08 1561.33C1580.31 1509.67 1581.25 1457.82 1581.97 1406.14C1582.23 1387.49 1581.93 1381.72 1599.83 1373.28Z"/></svg>