<?xml version="1.0" encoding="UTF-8"?>
<svg id="Layer_1" xmlns="http://www.w3.org/2000/svg" version="1.1" viewBox="0 0 2048 2048">
  <!-- Generator: Adobe Illustrator 30.2.1, SVG Export Plug-In . SVG Version: 2.1.1 Build 1)  -->
  <defs>
    <style>
      .st0 {
        fill: #fefefe;
      }

      .st1 {
        fill: #fc2f52;
      }

      .st2 {
        fill: #180a1b;
      }
    </style>
  </defs>
  <path class="st2" d="M0,0h2048v2048H0V0Z"/>
  <path class="st1" d="M728.4,544.5c10.7,7.4,40.8,34,51.8,43.3l88.1,73.5c-14.9,23.6-23,50.8-23.5,78.6-.6,41,15,80.5,43.5,109.9,46,47.3,115.4,60.3,175.5,33.1,21.6-9.8,33.6-19.4,50.4-35.9,20.8,18.4,43.1,36.5,64.4,54.3,15.6,13,32.7,28.2,48.8,40.2-11,10.8-20.4,18.9-32.3,28.5-101,72.6-233.7,83.2-343.4,23.3-75.2-41-131.1-110.1-155.4-192.3-26.1-89.1-12-176.1,32-256.5Z"/>
  <path class="st1" d="M1310.6,290.4c26.2-2.6,56.6,3.2,80.5,13.9,40.5,18.3,72.2,51.8,88.3,93.2,22.9,60.5,8.3,115-32.6,163.9-23.3,27.9-67.9,63.8-73.2,101.7-3.9,27.7-2.5,57.7-35.4,69.3-14.1,5-29.6,4.2-43.1-2.4-43.9-21.8-26.4-91.2-9.2-125.4,18.7-36.2,46.3-61.6,72.2-91.8,16.1-20,27-40.4,24.3-66.6-7-69.6-99.8-79.6-124.5-15.4-4.4,13.1-6.1,24.9-14.9,36.1-16.6,21.8-53,25.1-73.3,6.4-36.9-34.2-8.7-89.6,16.8-120.8,31.6-38.5,75.4-57.8,124-62.2Z"/>
  <path class="st0" d="M991.6,509.4c42.6-2.6,89.9,10,126.4,31.8,53.3,31.7,91.8,83.3,106.9,143.5,15.4,62.6,3.9,123.4-29.1,178.1-16.9-14.3-35.8-28-53.1-42.7,0-23.4,1.2-23,6.9-45.4.2-.8.3-1.7.5-2.5,7.2-42.3-.4-82.8-25.5-118-24.6-34-61.8-56.7-103.3-63-48.8-7.7-86.6,7.6-125.1,35.5-23.5-19.1-43.9-28.9-43.3-62.5,37.6-34,88.5-51.7,138.7-54.8Z"/>
  <path class="st0" d="M779.7,1480.3c12-1.5,26.1-.5,37.8,2.4,25.1,6.5,46.5,22.8,59.5,45.3,20.7,35.3,20.2,86.3.8,122.2-10.6,19.6-24.7,30.1-43.6,40.8,4.7,23.1,18.7,38.2,43.4,28.9,32-12.2,39,15.3,3.9,30.4-.4.1-.9.2-1.3.4-16.1,4.6-33.4,2.5-47.8-6-17.4-10.3-25.7-26.2-30.8-44.9-57.3,2.7-100.6-29.7-109.2-87.4-4.7-31.3.2-67.8,19.6-93.8,17.5-23.5,39.4-34.2,67.9-38.2Z"/>
  <path class="st2" d="M789,1508.4c15.3-.7,30.4,4.1,42.5,13.7,24.1,19.4,30.3,53.2,26.4,82.4-4.9,37.1-26.4,62.1-64.3,66-41.7,1.6-66.4-31-69.3-70-3.4-45.7,14.5-87.9,64.7-92.1Z"/>
  <path class="st0" d="M989.5,646.9c53.5-4.4,100.5,35.3,105.1,88.8,4.7,53.5-34.8,100.7-88.2,105.6-53.9,5-101.5-34.8-106.2-88.7s35.3-101.3,89.3-105.7Z"/>
  <path class="st1" d="M987.9,708.6c12.9-3.4,26.6.5,35.9,10,9.3,9.6,12.7,23.4,8.9,36.2-3.8,12.8-14.2,22.5-27.2,25.5-19.7,4.5-39.3-7.6-44.1-27.2-4.8-19.6,7-39.4,26.5-44.5Z"/>
  <path class="st0" d="M596.8,1209.3c8.2-.2,19.3-.7,23.7,8.3,7.2,14.7,13.4,30.3,19.8,45.4l45.5,107.3c2.8-8.5,7.1-18,10.6-26.2,17.3-40.9,35.5-81.5,54.2-121.8,2.8-5.4,8.2-11.4,14.4-12.7,27.7-6,25.3,30.1,27.1,48.1l6.3,61.4,6.1,58.9c1.1,10.4,2.5,21.1,3,31.5.7,14.2-16.4,21.4-27,12.8-2.2-1.8-4.9-5.1-5.2-8-1.5-12.8-2.4-25.7-3.5-38.4-2.3-27.6-4.8-55.1-7.5-82.7-.7-7-1.3-14.1-1.7-21.2-16.3,33.4-29.6,69.8-45,103.7-5.7,13.9-12.4,29.2-18.7,42.6-6.1,12.9-24.6,10.2-29.1-.3-20-46.7-39.3-97.9-60.2-143.9-5.4,45.9-8.7,92.3-14.1,138.2-1.1,9.6-10.9,15.4-20,13-4.5-1.1-8.2-4.1-10.4-8.1-3.9-7.3.9-35.7,2-45l7.4-64.7,6.6-58.2c1.9-16.6-.6-32.2,15.7-39.9Z"/>
  <path class="st0" d="M984.8,387.4c44.3-3.6,92.8,4,134.4,19.1-14.5,23.4-34.5,34.5-62.4,33.6-10.8-.6-21.6-2.9-32.4-3.7-69.4-4.9-126.2,13.1-181.9,53.9-18.2,13.8-36.4,33.6-50.6,51.4l-39.6-31.2,9.9-11.6c57.2-66.8,135.4-104.8,222.7-111.5Z"/>
  <path class="st0" d="M850.9,1210.2c8.8-.9,21.9.8,22.1,12.5.7,40.8-.4,81.2.2,122.2.5,36.2,21.5,57.5,58.3,54.9,51.9-4.4,47.4-50.7,47.4-89,0-22.6,0-45.2-.3-67.9,0-8-1.3-22.3,4.1-28.5,5.9-6.9,18.5-6.2,24.4.2,6.5,7,4.3,23,4.1,32.2-.3,23.8.1,47.7.2,71.6,0,17.7,1.4,36.4-2.8,53.7-4.5,18.5-15.3,33.8-31.7,43.6-22.5,13.6-54.2,15-79.2,8.6-19.6-5-36.4-16-46.7-33.7-5.4-9.3-8.3-19.8-9.7-30.4-1.8-13.7-2.5-130.5,0-139.2,1.7-5.9,4.3-8,9.6-10.8Z"/>
  <path class="st0" d="M931.8,1482.2c33.5-4.8,21,31.7,23,53.1,4.5,49.4-21.8,140.3,59.3,134.5,51.5-3.7,46.2-48.2,46.1-86.6l-.2-67.5c0-8.7-1.8-22.5,4.2-29.1,5.8-6.6,18-7.2,24.1-.6,6.9,7.5,4.7,24.6,4.6,34.4v67.5c.1,32.3,2.5,72.2-27.1,93.8-38.6,27.9-112.8,23.5-135.1-23.7-11.1-22.7-8.3-49-8.4-73.6.2-25.4.2-50.8-.3-76.2-.2-11.6-.2-19.3,10-26Z"/>
  <path class="st0" d="M1212.7,1482.2c36.9-.7,74.1.5,111-.2,9.1-.2,26.3-.8,33.5,4.9,4.1,3.2,6.6,8,7.1,13.2.3,3.1-.2,7.5-1.9,10-11.1,16.7-25.4,33.7-37.7,49.6l-82.3,106.1c16.2-.4,107.9-3.1,116.7,2,3,1.7,4.8,4.9,5.7,8.2,1.1,4.2.8,9.2-1.6,12.9-2.8,4.2-6.9,5.8-11.6,6.8l-87.2-.3c-12.2,0-46.8,2.2-55.3-3.1-4.5-2.9-7.6-7.6-8.5-12.9-.9-5.6.7-10.5,4-15,11.8-15.7,24.1-31.1,36.2-46.4,27.7-34.8,55.1-69.7,82.3-104.9-30.6-.5-79.5,1.3-111.1-.8-9.9-.7-18-20,.8-30.1Z"/>
  <path class="st0" d="M1112.3,1208.3c23.5-3.2,54.6,4.3,73.2,19.4,8.7,7.1,18.3,19.1,8,29.3-15.2,15.1-27.9-8.5-39.9-14.2-16.6-8.8-52.8-11.1-64.8,6.2-19.3,27.9,8.5,39.2,27.6,46.9,33.3,14,83.4,19.6,85.9,65.6,2.6,49.5-32.7,63.7-73.7,66.4-25.6-.1-47.1-4.9-68.1-21.9-10.1-8.2-21.7-27.7-2.6-35.2,8.9-3.5,21.5,11.8,29.5,18,25.2,19.6,91.2,16.5,85.1-27.9-3.9-20.1-31.1-25.1-46.8-31.1-27.8-10.6-68.6-16.3-74.1-51.9-6.6-43.2,22.3-63.8,60.6-69.7Z"/>
  <path class="st0" d="M1396,1208.4c29.2-2.3,60.2,3.9,80.1,27.2,6.9,6.5,6.9,20.5-2.4,25.3-19.9,10.4-27.4-18.3-52.3-22.2-45.3-7-75.9,13.3-82.7,59.5-6.3,42.7,6.1,93,54.8,101,21.6,3.3,37.6-1.5,54.9-14.2,6.3-6.1,9.6-13.3,18.8-15.1,18.3-3.4,19.7,17.3,10.7,28.4-30.9,37.7-98.2,38.4-135.4,10-46.7-35.8-51-121.2-15.6-166,17.3-21.9,41.8-31,69.1-33.9Z"/>
  <path class="st1" d="M1310.7,792.3c12.1-.4,22,1,32.9,7,13.6,7.4,23.5,20.1,27.4,35.1,1.5,5.9,3.2,19.6,1.2,25.2-11.4,32.1-27,63-39.9,94.6-3.6,8.7-8.1,20.1-12.8,27.9-3.7.7-3.7.9-7.5-.1-6.1-4.4-50.8-114.5-52.6-125.1-2.4-14.4,1.3-30.2,9.9-41.9,10.3-14,24.9-19.9,41.3-22.7Z"/>
  <path class="st0" d="M1146.1,1482.2c17-2.4,22.7,3.8,22.6,21.4-.3,60.3,1.3,121.7-.6,182-.1,4.1-6.6,8.7-9.9,10.6-11.9,2.1-21.7-3.2-21.8-16.2-.6-57.5-.2-115-.3-172.5,0-13.3-1.5-17.7,10.1-25.4Z"/>
  <path class="st0" d="M1247.9,1210.2c16.4-1.3,21.8,5.9,21.6,22.2-.6,61,1.7,122.9-1.2,183.7-.2,3.7-6.9,7.8-9.9,9.3-15.7,2.3-21.3-5.4-21.2-20.4.3-61.8-1.8-124.3,1.2-185.9.2-3.6,6.5-7.4,9.5-8.9Z"/>
</svg>