<?xml version="1.0" encoding="UTF-8"?>
<svg id="Layer_1" xmlns="http://www.w3.org/2000/svg" version="1.1" viewBox="0 0 1136.4 966.5">
  <!-- Generator: Adobe Illustrator 30.2.1, SVG Export Plug-In . SVG Version: 2.1.1 Build 1)  -->
  <defs>
    <style>
      .st0 {
        fill: #f6f6f7;
      }

      .st1 {
        fill: #040715;
        fill-opacity: 0;
      }

      .st2 {
        fill: #fd3b50;
      }

      .st3 {
        fill: #2f0511;
      }

      .st4 {
        fill: #0a0516;
      }
    </style>
  </defs>
  <path class="st0" d="M606.1,290.5c6.3,0,19.4,1.7,25.2,4.3,21.3,5.6,38.1,10.2,58.5,18.7,66.5,27.7,122.1,76.2,158.6,138.3,41.8,72.4,53.2,158.4,31.6,239.2-23.6,84.6-79.7,156.4-156.1,199.7-49.6,28.6-105.8,43.7-163.1,43.8v-64.3c-.5-30-5.7-68.8,16.9-92.1,16.1-16.7,40.2-20.9,60.6-30.2,51.6-24.5,83.7-80.7,83.7-137.1,0-41.1-16.2-80.5-45.2-109.6-24.7-24.7-43.3-29.7-75.6-40.4-14-.7-26.8-.6-40.8-.4,7.4-1.7,22.9-1,31-.8-13.5-7.6-23.3-14.4-33.1-26.6-2.9-3.7-4-5.5-8.2-6.8,2.5-1.7,1.8-.6,2.7-3.3l-1.4-1.4c-5-1.9-6.2-1.4-11.7-.9,3.4-.8,5.1-1.3,8.4-2.4-.7-6.3-6.4-15.9-7.1-22.7-.2-2-1-5.3-1.3-7.4-1.8-1.2-6.3-.5-8.9-.4,3.2-.6,8.5-1.2,9.2-4.9-5.2-3.8-20-.7-26.1-.1,8.6-3,16.3-3.4,25.3-4.1-.2-13.4,3.3-26.2,6.8-39-2.7-1.8-5.1-1.3-8.4-1.3l4.9-1.2c4.3-1,4.2-1.2,7.6-3.9v-1.6c-2.8-2.1-5.7-1.5-9.5-1.4l11.9-2.1c12.1-14.8,20.9-24.5,38.9-31.6,4.3-1.7,11.1-4,14.8-6.1Z"/>
  <path class="st3" d="M606.1,290.5c6.3,0,19.4,1.7,25.2,4.3-76-9.8-115,79.9-70.9,136,10.7,13.5,24.8,23.8,40.9,29.9-14-.7-26.8-.6-40.8-.4,7.4-1.7,22.9-1,31-.8-13.5-7.6-23.3-14.4-33.1-26.6-2.9-3.7-4-5.5-8.2-6.8,2.5-1.7,1.8-.6,2.7-3.3l-1.4-1.4c-5-1.9-6.2-1.4-11.7-.9,3.4-.8,5.1-1.3,8.4-2.4-.7-6.3-6.4-15.9-7.1-22.7-.2-2-1-5.3-1.3-7.4-1.8-1.2-6.3-.5-8.9-.4,3.2-.6,8.5-1.2,9.2-4.9-5.2-3.8-20-.7-26.1-.1,8.6-3,16.3-3.4,25.3-4.1-.2-13.4,3.3-26.2,6.8-39-2.7-1.8-5.1-1.3-8.4-1.3l4.9-1.2c4.3-1,4.2-1.2,7.6-3.9v-1.6c-2.8-2.1-5.7-1.5-9.5-1.4l11.9-2.1c12.1-14.8,20.9-24.5,38.9-31.6,4.3-1.7,11.1-4,14.8-6.1Z"/>
  <path class="st2" d="M551.5,32c93.5-6,190.7,21.2,271.4,68.2,18.3,10.7,69.7,42.9,76.2,63.5,2.6,8.2-2.6,16.4-6.8,23.2,6.4,5.7,13.1,11.6,19.3,17.6,80.2,77.5,126.2,183.8,127.8,295.3,3.8,3.7,13.5,10.9,18.1,14.5,16.2,12.9,28.4,27.7,37.7,46.2,16.2,32.9,18.7,70.9,6.9,105.6-14,41.8-37,60.7-74.2,79.3l1.2-5.5c3.5-15.4,2.2-30.2,2.2-46v-54.3c-.1-46.5.2-93.1-.5-139.6-.5-30.6-12.2-53.4-39.2-68-3.2-11-5.7-22.3-9.2-33.2-25.8-78.8-57.1-126.9-116-183.6-7.2,5.3-18,11.9-26.3,7-17.7-10.6-30.6-25-49.4-36.6-61.7-38.2-128.1-54.5-199.7-60.3-14.3-1.7-36.9-.8-51.2.2-69,4.4-135.7,25.9-194.3,62.6-14.1,8.8-25.8,19.9-39.5,29-15.2,10.2-24,7.9-36.9-3.1-58.7,58.5-105.9,134.4-121.3,216.7-44.9,29.4-39.3,58.5-39.3,107.4v78.6c0,0,0,73.6,0,73.6,0,16.9-.7,38.2,1.8,54.6-80.1-33.8-105.6-130.4-58.6-201.6,12.1-18.4,28-30.2,44.8-44,3.4-23.2,1.9-43.7,7.1-69.7,20.5-102.2,69.2-174,142.2-244.8-4.8-11.6-9.3-24.6,1.7-34.6,82.4-74.7,193.8-113.4,303.8-118.4Z"/>
  <path class="st2" d="M555.9,498.9c61.6-7.3,117.4,36.8,124.5,98.4,7.1,61.6-37.2,117.2-98.8,124.1-61.3,6.8-116.6-37.2-123.6-98.5-7.1-61.3,36.8-116.7,98-124Z"/>
  <path class="st3" d="M559,577c18.1-4,36,7.5,40,25.6,4,18.1-7.4,36.1-25.6,40.1-18.1,4-36.1-7.4-40.1-25.6-4-18.1,7.5-36.1,25.6-40.1Z"/>
  <path class="st0" d="M564,579c17-1.2,31.8,11.6,33.1,28.7,1.2,17-11.6,31.9-28.6,33.1-17.1,1.3-31.9-11.6-33.2-28.7-1.2-17.1,11.6-31.9,28.7-33.1Z"/>
  <path class="st2" d="M520.9,927.8l-1.5,1.3c-12.1.5-38.2-7.4-50.8-11.4-66.1-20.4-123.9-61.8-164.5-117.8-49.4-67.7-69.8-152.3-56.8-235,13.9-87,61.6-161.4,132.7-212.9,52.5-38.1,115-60,179.7-62.9,15-.7,31.6-.9,46.4,1.4-3.7,2.1-10.5,4.4-14.8,6.1-18,7.1-26.8,16.8-38.9,31.6l-11.9,2.1c-68.6,5.2-145.4,50.3-189.7,101.9-48.6,56.9-72.4,131-66,205.6,6.1,73.5,41.4,141.5,98.1,188.8,41.5,35,84.6,54.6,137.6,64.3,0,9.7-.6,28,.4,36.9Z"/>
  <path class="st2" d="M918.7,434.9c1.2,0,2.4-.1,3.6-.1,47.7-1.5,88.3,13.8,88.7,68.6.3,50.9.3,102,.2,152.9-1.7,28.6,3.5,60.4-1.4,88.6-7.1,40.9-40.2,53.2-75.6,53.5-15.3,0-35.1.4-49.6-3.2,57.2-93.8,66-209.3,23.6-310.6-3.2-7.7-21.2-42.6-20.4-46.5,5-3.6,23.5-2.9,30.9-3.2Z"/>
  <path class="st2" d="M191.1,435.8c11.6-.4,37.5-2,46.9,3.1.4.7.8,1.3,1.2,2-2.3,7.9-6.1,15.4-9.4,23-8.8,20.1-16.7,41.2-21.9,62.4-15.5,63.2-14.3,134.1,5.4,196.3,2.7,8.7,5.9,17.2,9.6,25.6,4.6,10.5,20.2,39.1,19.8,48-3.6,3.4-15.7,2.3-20.9,2.2-26.1.4-50.2,2.6-71.8-14.9-28.5-23.1-23.2-60-23-92.8v-80.4s-.1-73-.1-73c0-16-.7-32,1.2-48,3.7-32.6,32.3-51.3,63.2-53.6Z"/>
  <path class="st2" d="M537.5,338.3c3.4,0,5.8-.6,8.4,1.3-3.5,12.8-7.1,25.6-6.8,39-9,.7-16.7,1.1-25.3,4.1-27.9,7.9-56.9,20.2-81,36.4-51.5,35.1-87.2,88.9-99.6,149.9-11.9,61.1.9,124.5,35.7,176.1,34.8,51,90.2,90.6,151.4,102.1l.3,35.9c-34.7-3.9-82-26.5-111.4-46.3-58.5-39.6-98.8-100.9-112-170.3-14.3-71.5.8-145.8,41.9-206.1,48.6-71,116.3-106.4,198.4-122Z"/>
  <path class="st2" d="M530.7,387.7c2.7-.1,7.2-.9,8.9.4.4,2.1,1.1,5.4,1.3,7.4.7,6.8,6.5,16.4,7.1,22.7-3.3,1.2-5,1.6-8.4,2.4-17.1,2.3-43.7,12-58.8,20-46.5,24.5-81.4,66.4-97.1,116.6-14.4,48.3-9.1,100.3,14.7,144.7,27.2,50.9,69,81,123.2,97.5-1.5,11.6-1.3,27.8-1.4,39.7-30.9-8.2-48.4-13.6-76.3-31.7-52.2-33.5-89-86.2-102.5-146.7-12.4-58.7-.9-119.9,32-170,37.9-57.7,90.7-89.3,157.2-103Z"/>
  <path class="st2" d="M550.1,426.1c4.3,1.4,5.3,3.2,8.2,6.8,9.8,12.3,19.6,19.1,33.1,26.6-8.2-.2-23.6-.9-31,.8-41.4,3.1-79.9,22.6-106.8,54.2-57.5,67.2-44,168.9,28.7,218.9,18.1,12.5,37.6,19.1,58.6,24.9-4.8,7.7-14.5,22.9-15.8,32.2-14.9-1.4-39.1-13-51.8-20.6-42.7-26.3-73.1-68.5-84.5-117.3-11-47-2.8-96.4,22.9-137.2,22.6-36.3,56.7-63.9,97-78.4,13.8-4.9,27.2-7.8,41.4-11.1Z"/>
  <path class="st1" d="M540.5,330.3c3.8-.1,6.7-.8,9.6,1.4v1.6c-3.5,2.7-3.4,2.8-7.7,3.9l-4.9,1.2c-82.1,15.6-149.8,51.1-198.4,122-41.1,60.3-56.2,134.6-41.9,206.1,13.2,69.4,53.5,130.6,112,170.3,29.4,19.8,76.7,42.4,111.4,46.3l-.3-35.9c-61.2-11.5-116.5-51.1-151.4-102.1-34.8-51.6-47.7-115-35.7-176.1,12.4-61,48.1-114.8,99.6-149.9,24.2-16.2,53.1-28.5,81-36.4,6.2-.6,21-3.6,26.1.1-.7,3.7-6,4.3-9.2,4.9-66.5,13.7-119.3,45.3-157.2,103-32.9,50.2-44.4,111.4-32,170,13.5,60.5,50.3,113.2,102.5,146.7,27.9,18,45.5,23.5,76.3,31.7.1-11.9,0-28.1,1.4-39.7-54.3-16.5-96-46.6-123.2-97.5-23.7-44.4-29-96.4-14.7-144.7,15.6-50.2,50.6-92.1,97.1-116.6,15.2-8,41.7-17.6,58.8-20,5.5-.5,6.7-1,11.7.9l1.4,1.4c-.9,2.7-.2,1.5-2.7,3.3-14.2,3.3-27.6,6.1-41.4,11.1-40.3,14.4-74.4,42-97,78.4-25.6,40.8-33.9,90.3-22.9,137.2,11.4,48.8,41.8,91,84.5,117.3,12.7,7.6,36.9,19.2,51.8,20.6-.2-2.6-1.2,16-1,13.6-2,20.5,3.5,111.2-3.2,123.7-1.1-8.9-.5-27.2-.4-36.9-52.9-9.8-96.1-29.4-137.6-64.3-56.7-47.2-92-115.2-98.1-188.8-6.4-74.6,17.4-148.7,66-205.6,44.3-51.6,121.1-96.7,189.7-101.9Z"/>
</svg>